<svg xmlns="http://www.w3.org/2000/svg" width="1920" height="1080" viewBox="0 0 1920 1080" role="img" aria-labelledby="title description" data-theme="grove" data-theme-appearance="light">
  <title id="title">Portskill / One local service registry</title><desc id="description">Developers and agents share allocation state and service controls.. Architecture structure.</desc>
  <defs><marker id="arrow" viewBox="0 0 10 10" refX="9" refY="5" markerWidth="5" markerHeight="5" orient="auto-start-reverse"><path d="M 0 0 L 10 5 L 0 10 z" fill="#84948b"/></marker></defs>
  <rect width="1920" height="1080" fill="#fafbf8"/>
  <g font-family="Arial, Helvetica, sans-serif"><text x="96" y="58" font-size="12" letter-spacing="3" fill="#607c69">FRACTAL / SYSTEM MODEL</text>
  <g data-export-layer="title"><text x="96" y="116" font-size="48" font-weight="600" fill="#243b34"><tspan x="96" dy="0">Portskill / One local service registry</tspan></text></g>
  <g data-export-layer="subtitle"><text x="96" y="170" font-size="19" font-weight="400" fill="#6e7d72"><tspan x="96" dy="0">Developers and agents share allocation state and service controls.</tspan></text></g>
  <g data-export-layer="diagram" transform="translate(291.354 210) scale(1.181)"><path d="M238,330 L254,330 L254,283 L459.32,283" fill="none" stroke="#84948b" stroke-width="1.5" marker-end="url(#arrow)"/><path d="M238,330 L427.32,330 L427.32,283 L459.32,283" fill="none" stroke="#84948b" stroke-width="1.5" marker-end="url(#arrow)"/><path d="M238,330 L254,330 L254,424 L427.32,424 L427.32,283 L459.32,283" fill="none" stroke="#84948b" stroke-width="1.5" marker-end="url(#arrow)"/><path d="M238,330 L254,330 L254,377 L427.32,377 L427.32,283 L459.32,283" fill="none" stroke="#84948b" stroke-width="1.5" marker-end="url(#arrow)"/><path d="M673.32,283 L689.32,283 L689.32,388 L894.64,388" fill="none" stroke="#84948b" stroke-width="1.5" marker-end="url(#arrow)"/><path d="M673.32,283 L689.32,283 L689.32,407 L862.64,407 L862.64,388 L894.64,388" fill="none" stroke="#84948b" stroke-width="1.5" marker-end="url(#arrow)"/><path d="M673.32,283 L689.32,283 L689.32,159 L862.64,159 L862.64,97 L894.64,97" fill="none" stroke="#84948b" stroke-width="1.5" marker-end="url(#arrow)"/><path d="M673.32,283 L689.32,283 L689.32,97 L894.64,97" fill="none" stroke="#84948b" stroke-width="1.5" marker-end="url(#arrow)"/><path d="M673.32,283 L862.64,283 L862.64,97 L894.64,97" fill="none" stroke="#84948b" stroke-width="1.5" marker-end="url(#arrow)"/><path d="M673.32,283 L689.32,283 L689.32,221 L862.64,221 L862.64,97 L894.64,97" fill="none" stroke="#84948b" stroke-width="1.5" marker-end="url(#arrow)"/><path d="M673.32,283 L689.32,283 L689.32,564 L894.64,564" fill="none" stroke="#84948b" stroke-width="1.5" marker-end="url(#arrow)"/><path d="M238,491 L427.32,491 L427.32,283 L459.32,283" fill="none" stroke="#84948b" stroke-width="1.5" marker-end="url(#arrow)"/><g data-element="clients"><rect x="25" y="274" width="212" height="112" rx="14" fill="#ffffff" stroke="#d9e0da" stroke-width="1.3"/>
      <g transform="translate(211 291) scale(0.667)" color="#647D72" opacity="0.85"><title>System</title><g fill="none" stroke="currentColor" stroke-width="1.5" stroke-linecap="round" stroke-linejoin="round"><rect x="3" y="3" width="18" height="18" rx="3"/><path d="m12 7 5 5-5 5-5-5Z"/></g></g>
      <text x="45" y="306" font-size="14" font-weight="600" fill="#243b34"><tspan x="45" dy="0">Developers and</tspan><tspan x="45" dy="20">agents</tspan></text>
      <text x="45" y="351" font-size="12" font-weight="400" fill="#67746e"><tspan x="45" dy="0">Use the dashboard, a</tspan><tspan x="45" dy="17">terminal, or an MCP client.</tspan></text>
      </g><g data-element="portskill"><rect x="460.31999999999994" y="229" width="212" height="108" rx="14" fill="#ffffff" stroke="#d9e0da" stroke-width="1.3"/>
      <g transform="translate(646.32 246) scale(0.667)" color="#647D72" opacity="0.85"><title>System</title><g fill="none" stroke="currentColor" stroke-width="1.5" stroke-linecap="round" stroke-linejoin="round"><rect x="3" y="3" width="18" height="18" rx="3"/><path d="m12 7 5 5-5 5-5-5Z"/></g></g>
      <text x="480.32" y="261" font-size="14" font-weight="600" fill="#243b34"><tspan x="480.32" dy="0">Portskill</tspan></text>
      <text x="480.32" y="285" font-size="12" font-weight="400" fill="#67746e"><tspan x="480.32" dy="0">Reserves local ports and</tspan><tspan x="480.32" dy="17">coordinates service</tspan><tspan x="480.32" dy="17">lifecycles.</tspan></text>
      </g><g data-element="registry"><rect x="895.6399999999999" y="298" width="212" height="180" rx="14" fill="#ffffff" stroke="#d9e0da" stroke-width="1.3"/>
      <g transform="translate(1081.64 315) scale(0.667)" color="#647D72" opacity="0.85"><title>Store</title><g fill="none" stroke="currentColor" stroke-width="1.5" stroke-linecap="round" stroke-linejoin="round"><ellipse cx="12" cy="6" rx="8" ry="3"/><path d="M4 6v12c0 4 16 4 16 0V6M4 12c0 4 16 4 16 0"/></g></g>
      <text x="915.64" y="330" font-size="14" font-weight="600" fill="#243b34"><tspan x="915.64" dy="0">Registry and local</tspan><tspan x="915.64" dy="20">files</tspan></text>
      <text x="915.64" y="375" font-size="12" font-weight="400" fill="#67746e"><tspan x="915.64" dy="0">Global registry.json is</tspan><tspan x="915.64" dy="17">authoritative; project</tspan><tspan x="915.64" dy="17">mirrors and lifecycle logs</tspan><tspan x="915.64" dy="17">are derived local files.</tspan><tspan x="915.64" dy="17">listen.json records the</tspan><tspan x="915.64" dy="17">UI/MCP endpoint.</tspan></text>
      </g><g data-element="services"><rect x="895.6399999999999" y="24" width="212" height="146" rx="14" fill="#ffffff" stroke="#d9e0da" stroke-width="1.3"/>
      <g transform="translate(1081.64 41) scale(0.667)" color="#647D72" opacity="0.85"><title>System</title><g fill="none" stroke="currentColor" stroke-width="1.5" stroke-linecap="round" stroke-linejoin="round"><rect x="3" y="3" width="18" height="18" rx="3"/><path d="m12 7 5 5-5 5-5-5Z"/></g></g>
      <text x="915.64" y="56" font-size="14" font-weight="600" fill="#243b34"><tspan x="915.64" dy="0">Local project</tspan><tspan x="915.64" dy="20">services</tspan></text>
      <text x="915.64" y="101" font-size="12" font-weight="400" fill="#67746e"><tspan x="915.64" dy="0">Configured project</tspan><tspan x="915.64" dy="17">commands and independently</tspan><tspan x="915.64" dy="17">started TCP listeners can</tspan><tspan x="915.64" dy="17">coexist.</tspan></text>
      </g><g data-element="tailscale"><rect x="895.6399999999999" y="510" width="212" height="108" rx="14" fill="#ffffff" stroke="#d9e0da" stroke-width="1.3"/>
      <g transform="translate(1081.64 527) scale(0.667)" color="#647D72" opacity="0.85"><title>System</title><g fill="none" stroke="currentColor" stroke-width="1.5" stroke-linecap="round" stroke-linejoin="round"><rect x="3" y="3" width="18" height="18" rx="3"/><path d="m12 7 5 5-5 5-5-5Z"/></g></g>
      <text x="915.64" y="542" font-size="14" font-weight="600" fill="#243b34"><tspan x="915.64" dy="0">Tailscale</tspan></text>
      <text x="915.64" y="566" font-size="12" font-weight="400" fill="#67746e"><tspan x="915.64" dy="0">Optional external CLI and</tspan><tspan x="915.64" dy="17">daemon for Serve or Funnel</tspan><tspan x="915.64" dy="17">exposure.</tspan></text>
      </g><g data-element="mac"><rect x="25" y="418" width="212" height="146" rx="14" fill="#ffffff" stroke="#d9e0da" stroke-width="1.3"/>
      <g transform="translate(211 435) scale(0.667)" color="#647D72" opacity="0.85"><title>System</title><g fill="none" stroke="currentColor" stroke-width="1.5" stroke-linecap="round" stroke-linejoin="round"><rect x="3" y="3" width="18" height="18" rx="3"/><path d="m12 7 5 5-5 5-5-5Z"/></g></g>
      <text x="45" y="450" font-size="14" font-weight="600" fill="#243b34"><tspan x="45" dy="0">Optional macOS</tspan><tspan x="45" dy="20">shell</tspan></text>
      <text x="45" y="495" font-size="12" font-weight="400" fill="#67746e"><tspan x="45" dy="0">Native menu app starts</tspan><tspan x="45" dy="17">Python, or a launchd daemon</tspan><tspan x="45" dy="17">supervises Python in</tspan><tspan x="45" dy="17">external-server mode.</tspan></text>
      </g><g><rect x="303.05" y="289" width="91.21999999999998" height="23" rx="5" fill="#fafbf8"/><text x="348.66" y="302" text-anchor="middle" font-size="11" fill="#66766d"><tspan x="348.66" dy="0">UI and actions</tspan></text></g><g><rect x="315.80999999999995" y="336" width="65.69999999999999" height="23" rx="5" fill="#fafbf8"/><text x="348.65999999999997" y="349" text-anchor="middle" font-size="11" fill="#66766d"><tspan x="348.65999999999997" dy="0">HTTP MCP</tspan></text></g><g><rect x="314.05" y="430" width="69.21999999999998" height="23" rx="5" fill="#fafbf8"/><text x="348.66" y="443" text-anchor="middle" font-size="11" fill="#66766d"><tspan x="348.66" dy="0">Stdio MCP</tspan></text></g><g><rect x="306.67999999999995" y="383" width="83.95999999999998" height="23" rx="5" fill="#fafbf8"/><text x="348.65999999999997" y="396" text-anchor="middle" font-size="11" fill="#66766d"><tspan x="348.65999999999997" dy="0">CLI commands</tspan></text></g><g><rect x="735.2349999999999" y="348" width="97.48999999999998" height="38" rx="5" fill="#fafbf8"/><text x="783.9799999999999" y="361" text-anchor="middle" font-size="11" fill="#66766d"><tspan x="783.9799999999999" dy="0">Lock, read, and</tspan><tspan x="783.9799999999999" dy="15">persist</tspan></text></g><g><rect x="728.5799999999999" y="413" width="110.79999999999998" height="38" rx="5" fill="#fafbf8"/><text x="783.9799999999999" y="426" text-anchor="middle" font-size="11" fill="#66766d"><tspan x="783.9799999999999" dy="0">Read view; publish</tspan><tspan x="783.9799999999999" dy="15">endpoint</tspan></text></g><g><rect x="721.3199999999999" y="165" width="125.31999999999996" height="38" rx="5" fill="#fafbf8"/><text x="783.9799999999999" y="178" text-anchor="middle" font-size="11" fill="#66766d"><tspan x="783.9799999999999" dy="0">Spawn and terminate</tspan><tspan x="783.9799999999999" dy="15">tracked processes</tspan></text></g><g><rect x="723.1899999999999" y="103" width="121.57999999999997" height="38" rx="5" fill="#fafbf8"/><text x="783.9799999999999" y="116" text-anchor="middle" font-size="11" fill="#66766d"><tspan x="783.9799999999999" dy="0">Execute configured</tspan><tspan x="783.9799999999999" dy="15">hooks</tspan></text></g><g><rect x="743.4849999999999" y="289" width="80.99000000000001" height="38" rx="5" fill="#fafbf8"/><text x="783.9799999999999" y="302" text-anchor="middle" font-size="11" fill="#66766d"><tspan x="783.9799999999999" dy="0">Probe TCP</tspan><tspan x="783.9799999999999" dy="15">reachability</tspan></text></g><g><rect x="730.4499999999999" y="227" width="107.05999999999999" height="38" rx="5" fill="#fafbf8"/><text x="783.9799999999999" y="240" text-anchor="middle" font-size="11" fill="#66766d"><tspan x="783.9799999999999" dy="0">Probe TCP</tspan><tspan x="783.9799999999999" dy="15">reachability only</tspan></text></g><g><rect x="727.5899999999999" y="570" width="112.77999999999997" height="38" rx="5" fill="#fafbf8"/><text x="783.9799999999999" y="583" text-anchor="middle" font-size="11" fill="#66766d"><tspan x="783.9799999999999" dy="0">Configure Serve /</tspan><tspan x="783.9799999999999" dy="15">Funnel</tspan></text></g><g><rect x="286" y="497" width="125.31999999999996" height="38" rx="5" fill="#fafbf8"/><text x="348.65999999999997" y="510" text-anchor="middle" font-size="11" fill="#66766d"><tspan x="348.65999999999997" dy="0">Launch or supervise</tspan><tspan x="348.65999999999997" dy="15">server</tspan></text></g></g>
  <g data-export-layer="legend"></g><path d="M96 1010H1824" stroke="#dce2db"/><text x="96" y="1044" font-size="13" fill="#78867c">STRUCTURE · CURRENT SYSTEM</text><text x="1824" y="1044" text-anchor="end" font-size="13" fill="#78867c">portskill · Authored architecture</text></g></svg>
